
<svg width="480px" height="310px" viewBox="0 0 480 310" version="1.1" xmlns="http://www.w3.org/2000/svg" xmlns:xlink="http://www.w3.org/1999/xlink">
    <g id="1F" stroke="none" stroke-width="1" fill="none" fill-rule="evenodd">
        <g id="A3" transform="translate(-200.000000, -100.000000)">
            <g id="1F" transform="translate(200.000000, 100.000000)">
                <g id="Background-color" fill="#F5F5FF">
                    <rect id="Rectangle" x="50" y="0" width="430" height="310"></rect>
                    <rect id="Rectangle-Copy-3" x="0" y="112" width="50" height="148"></rect>
                </g>
                <g id="Other" transform="translate(320.000000, 0.000000)" fill="#5A5A5D" opacity="0.5">
                    <rect id="Rectangle" x="40" y="180" width="70" height="35"></rect>
                    <rect id="Rectangle-Copy-2" x="0" y="88" width="40" height="127"></rect>
                    <rect id="Rectangle" x="0" y="240" width="160" height="70"></rect>
                    <rect id="Rectangle-Copy" x="0" y="0" width="80" height="56"></rect>
                    <rect id="Rectangle-Copy" x="80" y="0" width="30" height="88"></rect>
                    <rect id="Rectangle-Copy" x="110" y="0" width="50" height="160"></rect>
                    <rect id="Rectangle" transform="translate(111.000000, 187.500000) scale(1, -1) rotate(90.000000) translate(-111.000000, -187.500000) " x="83.5" y="186.5" width="55" height="2"></rect>
                </g>
                <g id="Doorway3" transform="translate(444.000000, 212.000000)" fill="#0F0244" font-family="Osaka" font-size="10" font-weight="normal">
                    <text id="出入口" transform="translate(15.000000, 6.500000) rotate(-360.000000) translate(-15.000000, -6.500000) ">
                        <tspan x="0" y="10">出入口</tspan>
                    </text>
                </g>
                <g id="Doorway2" transform="translate(241.000000, 279.000000)">
                    <line x1="0.5" y1="3.5" x2="0.5" y2="29.5" id="Line" stroke="#5A5A5D" stroke-width="3" opacity="0.5" stroke-linecap="square" transform="translate(0.500000, 16.500000) rotate(180.000000) translate(-0.500000, -16.500000) "></line>
                    <line x1="0.5" y1="0.5" x2="77.5" y2="0.5" id="Line-2" stroke="#5A5A5D" stroke-width="3" opacity="0.5" stroke-linecap="square" transform="translate(39.000000, 0.500000) rotate(180.000000) translate(-39.000000, -0.500000) "></line>
                    <text id="出入口" font-family="Osaka" font-size="10" font-weight="normal" fill="#0F0244">
                        <tspan x="26" y="19">出入口</tspan>
                    </text>
                </g>
                <g id="Doorway1" transform="translate(51.000000, 1.000000)">
                    <line x1="0.5" y1="0.5" x2="0.5" y2="51.5" id="Line" stroke="#5A5A5D" stroke-width="3" opacity="0.5" stroke-linecap="square"></line>
                    <line x1="55.5" y1="0.5" x2="55.5" y2="51.5" id="Line" stroke="#5A5A5D" stroke-width="3" opacity="0.5" stroke-linecap="square"></line>
                    <line x1="0.5" y1="54.5" x2="55.5" y2="54.5" id="Line-2" stroke="#5A5A5D" stroke-width="3" opacity="0.5" stroke-linecap="square"></line>
                    <text id="出入口" transform="translate(27.000000, 26.500000) rotate(-360.000000) translate(-27.000000, -26.500000) " font-family="Osaka" font-size="10" font-weight="normal" fill="#0F0244">
                        <tspan x="12" y="30">出入口</tspan>
                    </text>
                </g>
                <g id="WC" transform="translate(387.000000, 129.000000)" fill="#0F0244" font-family="Osaka" font-size="10" font-weight="normal">
                    <text transform="translate(8.000000, 6.500000) rotate(-360.000000) translate(-8.000000, -6.500000) ">
                        <tspan x="0" y="10">WC</tspan>
                    </text>
                </g>
                <g id="Stairs" transform="translate(433.000000, 160.500000)">
                    <rect id="Rectangle" fill="#FFFFFF" opacity="0" x="1" y="0" width="19" height="44"></rect>
                    <line x1="0.666666667" y1="4" x2="19.3333333" y2="4" id="Line-4" stroke="#030C9D" stroke-linecap="square"></line>
                    <line x1="0.666666667" y1="9" x2="19.3333333" y2="9" id="Line-4" stroke="#030C9D" stroke-linecap="square"></line>
                    <line x1="0.666666667" y1="14" x2="19.3333333" y2="14" id="Line-4" stroke="#030C9D" stroke-linecap="square"></line>
                    <line x1="0.666666667" y1="19" x2="19.3333333" y2="19" id="Line-4-Copy-3" stroke="#030C9D" stroke-linecap="square"></line>
                    <line x1="0.666666667" y1="24" x2="19.3333333" y2="24" id="Line-4-Copy-2" stroke="#030C9D" stroke-linecap="square"></line>
                    <line x1="0.666666667" y1="29" x2="19.3333333" y2="29" id="Line-4-Copy" stroke="#030C9D" stroke-linecap="square"></line>
                    <line x1="0.666666667" y1="34" x2="19.3333333" y2="34" id="Line-4-Copy-4" stroke="#030C9D" stroke-linecap="square"></line>
                    <line x1="0.666666667" y1="39" x2="19.3333333" y2="39" id="Line-4-Copy-5" stroke="#030C9D" stroke-linecap="square"></line>
                </g>
                <g id="C" transform="translate(240.000000, 112.000000)">
                    <rect id="Rectangle" fill-opacity="0.290964407" fill="#0062FF" x="0" y="0" width="80" height="166"></rect>
                    <text font-family="Osaka" font-size="21" font-weight="normal" fill="#030303">
                        <tspan x="34" y="97">C</tspan>
                    </text>
                </g>
                <g id="B" transform="translate(0.000000, 112.000000)">
                    <rect id="Rectangle" fill-opacity="0.216393104" fill="#FE2FD6" x="50" y="0" width="190" height="198"></rect>
                    <rect id="Rectangle" fill-opacity="0.216393104" fill="#FE2FD6" x="0" y="0" width="50" height="148"></rect>
                    <text font-family="Osaka" font-size="21" font-weight="normal" fill="#030303">
                        <tspan x="138" y="96">B</tspan>
                    </text>
                </g>
                <g id="A" transform="translate(50.000000, 0.000000)">
                    <rect id="Rectangle" fill-opacity="0.290964407" fill="#FF0000" x="0" y="57" width="270" height="55"></rect>
                    <rect id="Rectangle" fill-opacity="0.290964407" fill="#FF0000" x="58" y="0" width="212" height="57"></rect>
                    <text font-family="Osaka" font-size="21" font-weight="normal" fill="#030303">
                        <tspan x="148" y="68">A</tspan>
                    </text>
                </g>
            </g>
        </g>
    </g>
</svg>